<svg width="584" height="577" viewBox="0 0 584 577" fill="none" xmlns="http://www.w3.org/2000/svg">
<path fill-rule="evenodd" clip-rule="evenodd" d="M239.465 555.722V364.536C239.465 352.946 248.86 343.551 260.45 343.551H457.127C480.271 336.434 501.002 309.191 501.002 278.717C501.002 238.519 462.21 205.952 422.222 205.952H367.41V186.424L471.176 87.2803H315.407V56.696H521.803V77.7865L518.277 81.1514L420.907 175.308C480.799 175.308 531.546 225 531.546 278.657C531.546 304.308 522.641 325.848 508.68 343.551H562.468C574.058 343.551 583.453 334.155 583.453 322.566V20.9849C583.453 9.39527 574.058 0 562.468 0H260.45C248.86 0 239.465 9.39529 239.465 20.985V323.106C239.465 334.695 230.07 344.091 218.48 344.091H20.985C9.3953 344.091 0 353.486 0 365.076V555.722C0 567.312 9.39529 576.707 20.985 576.707H218.48C230.07 576.707 239.465 567.312 239.465 555.722Z" fill="#452E78"/>
</svg>
